<mxfile host="app.diagrams.net" modified="2021-07-06T13:05:02.766Z" agent="5.0 (Windows NT 10.0; WOW64) AppleWebKit/537.36 (KHTML, like Gecko) Chrome/91.0.4472.101 Safari/537.36" etag="ZqXoL3OTRxTN6Wi70DSv" version="14.8.2" type="github">
  <diagram id="4IQgUz9a8YdyqRzsd7rU" name="Page-1">
    <mxGraphModel dx="1422" dy="762" grid="1" gridSize="10" guides="1" tooltips="1" connect="1" arrows="1" fold="1" page="1" pageScale="1" pageWidth="827" pageHeight="1169" math="0" shadow="0">
      <root>
        <mxCell id="0" />
        <mxCell id="1" parent="0" />
        <mxCell id="PDTsoeTo79a2_nBO2D0E-1" value="AWS Account" style="outlineConnect=0;gradientColor=none;html=1;whiteSpace=wrap;fontSize=12;fontStyle=0;shape=mxgraph.aws4.group;grIcon=mxgraph.aws4.group_region;strokeColor=#879196;fillColor=none;verticalAlign=top;align=left;spacingLeft=30;fontColor=#879196;dashed=1;" vertex="1" parent="1">
          <mxGeometry x="280" y="110" width="520" height="420" as="geometry" />
        </mxCell>
        <mxCell id="PDTsoeTo79a2_nBO2D0E-2" value="On Premise&amp;nbsp;" style="outlineConnect=0;gradientColor=none;html=1;whiteSpace=wrap;fontSize=12;fontStyle=0;shape=mxgraph.aws4.group;grIcon=mxgraph.aws4.group_region;strokeColor=#879196;fillColor=none;verticalAlign=top;align=left;spacingLeft=30;fontColor=#879196;dashed=1;" vertex="1" parent="1">
          <mxGeometry x="10" y="199.99" width="170" height="190" as="geometry" />
        </mxCell>
        <mxCell id="PDTsoeTo79a2_nBO2D0E-3" value="" style="aspect=fixed;html=1;points=[];align=center;image;fontSize=12;image=img/lib/azure2/databases/Azure_Database_PostgreSQL_Server.svg;" vertex="1" parent="1">
          <mxGeometry x="78.75" y="273.32000000000005" width="32.5" height="43.33" as="geometry" />
        </mxCell>
        <mxCell id="PDTsoeTo79a2_nBO2D0E-4" value="" style="outlineConnect=0;dashed=0;verticalLabelPosition=bottom;verticalAlign=top;align=center;html=1;shape=mxgraph.aws3.database_migration_service;fillColor=#2E73B8;gradientColor=none;" vertex="1" parent="1">
          <mxGeometry x="300" y="264.49" width="50" height="61" as="geometry" />
        </mxCell>
        <mxCell id="PDTsoeTo79a2_nBO2D0E-5" value="DMS service" style="text;html=1;align=center;verticalAlign=middle;resizable=0;points=[];autosize=1;strokeColor=none;" vertex="1" parent="1">
          <mxGeometry x="290" y="340" width="80" height="20" as="geometry" />
        </mxCell>
        <mxCell id="PDTsoeTo79a2_nBO2D0E-6" value="Potgresql RDBMS" style="text;html=1;align=center;verticalAlign=middle;resizable=0;points=[];autosize=1;strokeColor=none;" vertex="1" parent="1">
          <mxGeometry x="50" y="340" width="110" height="20" as="geometry" />
        </mxCell>
        <mxCell id="PDTsoeTo79a2_nBO2D0E-7" value="" style="endArrow=classic;html=1;" edge="1" parent="1" source="PDTsoeTo79a2_nBO2D0E-2" target="PDTsoeTo79a2_nBO2D0E-1">
          <mxGeometry width="50" height="50" relative="1" as="geometry">
            <mxPoint x="190" y="305" as="sourcePoint" />
            <mxPoint x="440" y="370" as="targetPoint" />
          </mxGeometry>
        </mxCell>
        <mxCell id="PDTsoeTo79a2_nBO2D0E-8" value="Data Migration &lt;br&gt;to AWS" style="text;html=1;align=center;verticalAlign=middle;resizable=0;points=[];autosize=1;strokeColor=none;" vertex="1" parent="1">
          <mxGeometry x="187" y="316.65000000000003" width="90" height="30" as="geometry" />
        </mxCell>
        <mxCell id="PDTsoeTo79a2_nBO2D0E-10" value="Redshift Cluster" style="text;html=1;align=center;verticalAlign=middle;resizable=0;points=[];autosize=1;strokeColor=none;" vertex="1" parent="1">
          <mxGeometry x="560" y="284.99" width="100" height="20" as="geometry" />
        </mxCell>
        <mxCell id="PDTsoeTo79a2_nBO2D0E-12" value="" style="outlineConnect=0;dashed=0;verticalLabelPosition=bottom;verticalAlign=top;align=center;html=1;shape=mxgraph.aws3.redshift;fillColor=#2E73B8;gradientColor=none;" vertex="1" parent="1">
          <mxGeometry x="670" y="285" width="67.5" height="75" as="geometry" />
        </mxCell>
        <mxCell id="PDTsoeTo79a2_nBO2D0E-13" value="" style="outlineConnect=0;dashed=0;verticalLabelPosition=bottom;verticalAlign=top;align=center;html=1;shape=mxgraph.aws3.quicksight;fillColor=#00B7F4;gradientColor=none;" vertex="1" parent="1">
          <mxGeometry x="690" y="420" width="60" height="60" as="geometry" />
        </mxCell>
        <mxCell id="PDTsoeTo79a2_nBO2D0E-14" value="Quicksight" style="text;html=1;align=center;verticalAlign=middle;resizable=0;points=[];autosize=1;strokeColor=none;" vertex="1" parent="1">
          <mxGeometry x="685" y="500" width="70" height="20" as="geometry" />
        </mxCell>
        <mxCell id="PDTsoeTo79a2_nBO2D0E-15" value="" style="outlineConnect=0;dashed=0;verticalLabelPosition=bottom;verticalAlign=top;align=center;html=1;shape=mxgraph.aws3.rds;fillColor=#2E73B8;gradientColor=none;" vertex="1" parent="1">
          <mxGeometry x="410" y="420" width="62" height="55" as="geometry" />
        </mxCell>
        <mxCell id="PDTsoeTo79a2_nBO2D0E-16" value="RDS" style="text;html=1;align=center;verticalAlign=middle;resizable=0;points=[];autosize=1;strokeColor=none;" vertex="1" parent="1">
          <mxGeometry x="425" y="500" width="40" height="20" as="geometry" />
        </mxCell>
        <mxCell id="PDTsoeTo79a2_nBO2D0E-20" value="" style="endArrow=classic;html=1;" edge="1" parent="1" source="PDTsoeTo79a2_nBO2D0E-4" target="PDTsoeTo79a2_nBO2D0E-15">
          <mxGeometry width="50" height="50" relative="1" as="geometry">
            <mxPoint x="390" y="410" as="sourcePoint" />
            <mxPoint x="440" y="360" as="targetPoint" />
          </mxGeometry>
        </mxCell>
        <mxCell id="PDTsoeTo79a2_nBO2D0E-21" value="copy data&lt;br&gt;" style="text;html=1;align=center;verticalAlign=middle;resizable=0;points=[];autosize=1;strokeColor=none;" vertex="1" parent="1">
          <mxGeometry x="320" y="400" width="70" height="20" as="geometry" />
        </mxCell>
        <mxCell id="PDTsoeTo79a2_nBO2D0E-24" value="" style="endArrow=classic;html=1;exitX=0.5;exitY=1;exitDx=0;exitDy=0;exitPerimeter=0;entryX=0.5;entryY=0;entryDx=0;entryDy=0;entryPerimeter=0;" edge="1" parent="1" source="PDTsoeTo79a2_nBO2D0E-12" target="PDTsoeTo79a2_nBO2D0E-13">
          <mxGeometry width="50" height="50" relative="1" as="geometry">
            <mxPoint x="390" y="400" as="sourcePoint" />
            <mxPoint x="440" y="350" as="targetPoint" />
          </mxGeometry>
        </mxCell>
        <mxCell id="PDTsoeTo79a2_nBO2D0E-25" value="Data Visualization" style="text;html=1;align=center;verticalAlign=middle;resizable=0;points=[];autosize=1;strokeColor=none;" vertex="1" parent="1">
          <mxGeometry x="580" y="380" width="110" height="20" as="geometry" />
        </mxCell>
        <mxCell id="PDTsoeTo79a2_nBO2D0E-26" value="" style="outlineConnect=0;fontColor=#232F3E;gradientColor=none;fillColor=#C7131F;strokeColor=none;dashed=0;verticalLabelPosition=bottom;verticalAlign=top;align=center;html=1;fontSize=12;fontStyle=0;aspect=fixed;pointerEvents=1;shape=mxgraph.aws4.role;" vertex="1" parent="1">
          <mxGeometry x="496.77" y="120" width="48" height="27.08" as="geometry" />
        </mxCell>
        <mxCell id="PDTsoeTo79a2_nBO2D0E-27" value="" style="points=[[0,0,0],[0.25,0,0],[0.5,0,0],[0.75,0,0],[1,0,0],[0,1,0],[0.25,1,0],[0.5,1,0],[0.75,1,0],[1,1,0],[0,0.25,0],[0,0.5,0],[0,0.75,0],[1,0.25,0],[1,0.5,0],[1,0.75,0]];outlineConnect=0;fontColor=#232F3E;gradientColor=#F54749;gradientDirection=north;fillColor=#C7131F;strokeColor=#ffffff;dashed=0;verticalLabelPosition=bottom;verticalAlign=top;align=center;html=1;fontSize=12;fontStyle=0;aspect=fixed;shape=mxgraph.aws4.resourceIcon;resIcon=mxgraph.aws4.secrets_manager;" vertex="1" parent="1">
          <mxGeometry x="395" y="214" width="38" height="38" as="geometry" />
        </mxCell>
        <mxCell id="PDTsoeTo79a2_nBO2D0E-28" value="assume role&lt;br&gt;" style="text;html=1;align=center;verticalAlign=middle;resizable=0;points=[];autosize=1;strokeColor=none;" vertex="1" parent="1">
          <mxGeometry x="590" y="164" width="80" height="20" as="geometry" />
        </mxCell>
        <mxCell id="PDTsoeTo79a2_nBO2D0E-29" value="IAM role" style="text;html=1;align=center;verticalAlign=middle;resizable=0;points=[];autosize=1;strokeColor=none;" vertex="1" parent="1">
          <mxGeometry x="544.77" y="120" width="60" height="20" as="geometry" />
        </mxCell>
        <mxCell id="PDTsoeTo79a2_nBO2D0E-30" value="Secrets Manger&lt;br&gt;RDS credentials&amp;nbsp;" style="text;html=1;align=center;verticalAlign=middle;resizable=0;points=[];autosize=1;strokeColor=none;" vertex="1" parent="1">
          <mxGeometry x="280" y="184" width="110" height="30" as="geometry" />
        </mxCell>
        <mxCell id="PDTsoeTo79a2_nBO2D0E-31" value="" style="endArrow=classic;startArrow=classic;html=1;" edge="1" parent="1" source="PDTsoeTo79a2_nBO2D0E-26" target="PDTsoeTo79a2_nBO2D0E-12">
          <mxGeometry width="50" height="50" relative="1" as="geometry">
            <mxPoint x="660" y="160" as="sourcePoint" />
            <mxPoint x="440" y="340" as="targetPoint" />
          </mxGeometry>
        </mxCell>
        <mxCell id="PDTsoeTo79a2_nBO2D0E-32" value="" style="endArrow=classic;startArrow=classic;html=1;" edge="1" parent="1" source="PDTsoeTo79a2_nBO2D0E-27" target="PDTsoeTo79a2_nBO2D0E-26">
          <mxGeometry width="50" height="50" relative="1" as="geometry">
            <mxPoint x="390" y="390" as="sourcePoint" />
            <mxPoint x="440" y="340" as="targetPoint" />
          </mxGeometry>
        </mxCell>
        <mxCell id="PDTsoeTo79a2_nBO2D0E-33" value="" style="endArrow=classic;startArrow=classic;html=1;entryX=0.5;entryY=1;entryDx=0;entryDy=0;entryPerimeter=0;" edge="1" parent="1" source="PDTsoeTo79a2_nBO2D0E-15" target="PDTsoeTo79a2_nBO2D0E-27">
          <mxGeometry width="50" height="50" relative="1" as="geometry">
            <mxPoint x="435" y="199.31221844258528" as="sourcePoint" />
            <mxPoint x="500.9984920724164" y="165.6606934785674" as="targetPoint" />
          </mxGeometry>
        </mxCell>
        <mxCell id="PDTsoeTo79a2_nBO2D0E-34" value="AWS Region" style="outlineConnect=0;gradientColor=none;html=1;whiteSpace=wrap;fontSize=12;fontStyle=0;shape=mxgraph.aws4.group;grIcon=mxgraph.aws4.group_region;strokeColor=#879196;fillColor=none;verticalAlign=top;align=left;spacingLeft=30;fontColor=#879196;dashed=1;" vertex="1" parent="1">
          <mxGeometry x="290" y="155" width="500" height="365" as="geometry" />
        </mxCell>
      </root>
    </mxGraphModel>
  </diagram>
</mxfile>
